<mxfile host="app.diagrams.net" agent="Mozilla/5.0 (Windows NT 10.0; Win64; x64) AppleWebKit/537.36 (KHTML, like Gecko) Chrome/127.0.0.0 Safari/537.36 Edg/127.0.0.0" version="24.7.4">
  <diagram name="Page-1" id="B9T516lEwlXwABMXEBh1">
    <mxGraphModel grid="1" page="1" gridSize="10" guides="1" tooltips="1" connect="1" arrows="1" fold="1" pageScale="1" pageWidth="827" pageHeight="1169" math="0" shadow="0">
      <root>
        <mxCell id="0" />
        <mxCell id="1" parent="0" />
        <mxCell id="RfRpXH5wj3aHBDnmaydT-3" style="edgeStyle=orthogonalEdgeStyle;rounded=0;orthogonalLoop=1;jettySize=auto;html=1;exitX=0.5;exitY=1;exitDx=0;exitDy=0;entryX=0.5;entryY=0;entryDx=0;entryDy=0;" edge="1" parent="1" source="RfRpXH5wj3aHBDnmaydT-1" target="RfRpXH5wj3aHBDnmaydT-2">
          <mxGeometry relative="1" as="geometry" />
        </mxCell>
        <mxCell id="RfRpXH5wj3aHBDnmaydT-1" value="Ask user name and bid." style="rounded=0;whiteSpace=wrap;html=1;" vertex="1" parent="1">
          <mxGeometry x="320" y="20" width="120" height="60" as="geometry" />
        </mxCell>
        <mxCell id="RfRpXH5wj3aHBDnmaydT-5" style="edgeStyle=orthogonalEdgeStyle;rounded=0;orthogonalLoop=1;jettySize=auto;html=1;exitX=0.5;exitY=1;exitDx=0;exitDy=0;entryX=0.5;entryY=0;entryDx=0;entryDy=0;" edge="1" parent="1" source="RfRpXH5wj3aHBDnmaydT-2" target="RfRpXH5wj3aHBDnmaydT-4">
          <mxGeometry relative="1" as="geometry" />
        </mxCell>
        <mxCell id="RfRpXH5wj3aHBDnmaydT-2" value="Create dictionary." style="rounded=0;whiteSpace=wrap;html=1;" vertex="1" parent="1">
          <mxGeometry x="320" y="120" width="120" height="60" as="geometry" />
        </mxCell>
        <mxCell id="RfRpXH5wj3aHBDnmaydT-7" style="edgeStyle=orthogonalEdgeStyle;rounded=0;orthogonalLoop=1;jettySize=auto;html=1;exitX=0.5;exitY=1;exitDx=0;exitDy=0;entryX=0.5;entryY=0;entryDx=0;entryDy=0;" edge="1" parent="1" source="RfRpXH5wj3aHBDnmaydT-4" target="RfRpXH5wj3aHBDnmaydT-6">
          <mxGeometry relative="1" as="geometry" />
        </mxCell>
        <mxCell id="RfRpXH5wj3aHBDnmaydT-4" value="Add name and bid to dictionary." style="rounded=0;whiteSpace=wrap;html=1;" vertex="1" parent="1">
          <mxGeometry x="320" y="220" width="120" height="60" as="geometry" />
        </mxCell>
        <mxCell id="RfRpXH5wj3aHBDnmaydT-11" value="Yes" style="edgeStyle=orthogonalEdgeStyle;rounded=0;orthogonalLoop=1;jettySize=auto;html=1;exitX=0;exitY=0.5;exitDx=0;exitDy=0;entryX=0;entryY=0.5;entryDx=0;entryDy=0;" edge="1" parent="1" source="RfRpXH5wj3aHBDnmaydT-6" target="RfRpXH5wj3aHBDnmaydT-1">
          <mxGeometry relative="1" as="geometry">
            <mxPoint x="210" y="110" as="targetPoint" />
            <Array as="points">
              <mxPoint x="220" y="360" />
              <mxPoint x="220" y="50" />
            </Array>
          </mxGeometry>
        </mxCell>
        <mxCell id="RfRpXH5wj3aHBDnmaydT-12" value="No" style="edgeStyle=orthogonalEdgeStyle;rounded=0;orthogonalLoop=1;jettySize=auto;html=1;exitX=1;exitY=0.5;exitDx=0;exitDy=0;entryX=0.5;entryY=0;entryDx=0;entryDy=0;" edge="1" parent="1" source="RfRpXH5wj3aHBDnmaydT-6" target="RfRpXH5wj3aHBDnmaydT-9">
          <mxGeometry relative="1" as="geometry" />
        </mxCell>
        <mxCell id="RfRpXH5wj3aHBDnmaydT-6" value="Ask User if anyone else will bid." style="rhombus;whiteSpace=wrap;html=1;" vertex="1" parent="1">
          <mxGeometry x="340" y="320" width="80" height="80" as="geometry" />
        </mxCell>
        <mxCell id="RfRpXH5wj3aHBDnmaydT-14" style="edgeStyle=orthogonalEdgeStyle;rounded=0;orthogonalLoop=1;jettySize=auto;html=1;exitX=0.5;exitY=1;exitDx=0;exitDy=0;entryX=0.5;entryY=0;entryDx=0;entryDy=0;" edge="1" parent="1" source="RfRpXH5wj3aHBDnmaydT-9" target="RfRpXH5wj3aHBDnmaydT-13">
          <mxGeometry relative="1" as="geometry" />
        </mxCell>
        <mxCell id="RfRpXH5wj3aHBDnmaydT-9" value="Loop through names and find highest bid." style="rounded=0;whiteSpace=wrap;html=1;" vertex="1" parent="1">
          <mxGeometry x="470" y="420" width="120" height="60" as="geometry" />
        </mxCell>
        <mxCell id="RfRpXH5wj3aHBDnmaydT-13" value="Print Highest Bid" style="rounded=0;whiteSpace=wrap;html=1;" vertex="1" parent="1">
          <mxGeometry x="470" y="525" width="120" height="60" as="geometry" />
        </mxCell>
      </root>
    </mxGraphModel>
  </diagram>
</mxfile>
